<svg xmlns="http://www.w3.org/2000/svg" width="120" height="124" viewBox="0 0 120 124">
    <defs>
        <style>
            .logo-top, .logo-bottom {
            fill: #FFFFFF;
            fill-rule: evenodd;
            }
        </style>
    </defs>
    <path id="logo-top" class="logo-top" d="M262.9,139.28a7.18,7.18,0,0,0,7.181,0l0.712-.413a7.182,7.182,0,0,1,7.182,0l21.609,12.517a7.516,7.516,0,0,1,0,13l-24.871,14.4a9.421,9.421,0,0,1-9.424,0l-46.733-27.067s-6.664-3.283-8.555-8.623V161.26a18.963,18.963,0,0,0,9.426,16.376l41.149,23.834a18.846,18.846,0,0,0,18.85,0l41.15-23.834A18.964,18.964,0,0,0,330,161.26v-8.315a16.254,16.254,0,0,0-8.079-14.037l-48.33-27.992a7.175,7.175,0,0,0-7.181,0L245.1,123.256a3.306,3.306,0,0,0,0,5.718Z" transform="translate(-210 -80)"/>
    <path id="logo-bottom" class="logo-bottom" d="M277.1,144.717a7.18,7.18,0,0,0-7.181,0l-0.712.413a7.18,7.18,0,0,1-7.181,0l-21.61-12.516a7.516,7.516,0,0,1,0-13l24.87-14.4a9.421,9.421,0,0,1,9.424,0l46.732,27.066s6.665,3.284,8.556,8.623V122.737a18.968,18.968,0,0,0-9.425-16.377l-41.15-23.833a18.843,18.843,0,0,0-18.85,0L219.426,106.36A18.967,18.967,0,0,0,210,122.737v8.315a16.255,16.255,0,0,0,8.079,14.037l48.331,27.993a7.18,7.18,0,0,0,7.181,0L294.9,160.741a3.306,3.306,0,0,0,0-5.718Z" transform="translate(-210 -80)"/>
</svg>