<svg xmlns="http://www.w3.org/2000/svg" xmlns:xlink="http://www.w3.org/1999/xlink" width="1264.465" height="1381.188" viewBox="0 0 1264.465 1381.188">
  <defs>
    <style>
      .cls-1 {
        fill: #FFFFFF;
        fill-opacity: 0.1;
      }
    </style>
  </defs>
  <path id="s.svg" class="cls-1" d="M968.1,986.38q-36.658,66.7-139.68,116.93-100.846,49.17-193.947,36.23-93.118-12.915-147.728-113.82L239.059,1146.48l1.014,7.65q68.238,156.645,259.644,209.81,191.406,53.19,422.664-59.56Q1138.275,1199.125,1221.73,1035q83.445-164.1,5.43-324.13Q1156.63,566.2,1007.8,534.991t-394.847,31.76q-159.661,42.581-225.231,29.1-65.571-13.462-96.031-75.943t-1.147-130.339q29.3-67.852,125.754-114.89,97.533-47.55,179.083-22.2t117.342,98.786l255.361-124.5-1.014-7.644Q895.6,58.637,715.831,14.023,536.046-30.58,319.052,75.209,112.993,175.67,38.268,342.321q-74.751,166.665-2.074,315.712Q105.659,800.52,255.045,830.09q149.391,29.6,383.916-29.141,158.529-39.3,230.909-24.406,72.381,14.912,102.3,76.278Q1004.766,919.682,968.1,986.38Z" transform="translate(-0.375 -0.813)"/>
</svg>
