<?xml version="1.0" encoding="UTF-8"?>
<!DOCTYPE svg PUBLIC "-//W3C//DTD SVG 1.1//EN" "http://www.w3.org/Graphics/SVG/1.1/DTD/svg11.dtd">
<!-- Creator: CorelDRAW X8 -->
<svg xmlns="http://www.w3.org/2000/svg" xml:space="preserve" width="70mm" height="100mm" version="1.1" style="shape-rendering:geometricPrecision; text-rendering:geometricPrecision; image-rendering:optimizeQuality; fill-rule:evenodd; clip-rule:evenodd"
viewBox="0 0 7000 10000"
 xmlns:xlink="http://www.w3.org/1999/xlink">
 <defs>
  <style type="text/css">
   <![CDATA[
    .fil2 {fill:#754835;fill-rule:nonzero}
    .fil0 {fill:#9EB121;fill-rule:nonzero}
    .fil1 {fill:#C6CC38;fill-rule:nonzero}
   ]]>
  </style>
 </defs>
 <g id="Layer_x0020_1">
  <metadata id="CorelCorpID_0Corel-Layer"/>
  <path class="fil0" d="M2814 1441c0,0 -149,299 -75,496 73,197 310,266 310,266 0,0 85,-283 31,-440 -54,-157 -266,-322 -266,-322z"/>
  <path class="fil1" d="M2884 1720c0,0 -83,166 -42,276 40,109 172,148 172,148 0,0 48,-158 18,-245 -30,-87 -148,-179 -148,-179z"/>
  <path class="fil0" d="M2108 2124c0,0 196,271 405,297 208,26 379,-152 379,-152 0,0 -211,-207 -375,-232 -165,-25 -409,87 -409,87z"/>
  <path class="fil1" d="M2387 2192c0,0 109,150 225,164 116,15 211,-84 211,-84 0,0 -117,-115 -208,-129 -92,-14 -228,49 -228,49z"/>
  <path class="fil0" d="M3249 2744c0,0 -235,42 -318,168 -82,126 -21,292 -21,292 0,0 200,-71 267,-169 68,-98 72,-291 72,-291z"/>
  <path class="fil1" d="M3118 2903c0,0 -131,23 -177,93 -45,70 -12,162 -12,162 0,0 112,-39 149,-94 38,-54 40,-161 40,-161z"/>
  <path class="fil0" d="M2454 2606c0,0 -63,231 15,359 79,129 255,145 255,145 0,0 21,-211 -39,-314 -59,-103 -231,-190 -231,-190z"/>
  <path class="fil1" d="M2541 2792c0,0 -35,129 9,200 43,72 141,80 141,80 0,0 12,-117 -21,-174 -33,-57 -129,-106 -129,-106z"/>
  <path class="fil0" d="M1734 2885c0,0 82,283 247,368 165,84 361,-13 361,-13 0,0 -114,-235 -243,-305 -128,-69 -365,-50 -365,-50z"/>
  <path class="fil1" d="M1946 3025c0,0 45,157 137,204 92,47 201,-7 201,-7 0,0 -64,-131 -135,-169 -72,-39 -203,-28 -203,-28z"/>
  <path class="fil0" d="M1587 3588c0,0 276,164 470,109 194,-56 278,-278 278,-278 0,0 -265,-103 -420,-63 -154,40 -328,232 -328,232z"/>
  <path class="fil1" d="M1859 3542c0,0 154,91 262,60 108,-31 154,-154 154,-154 0,0 -147,-58 -233,-35 -86,22 -183,129 -183,129z"/>
  <path class="fil0" d="M4307 1278c0,0 -325,-52 -489,74 -165,127 -161,371 -161,371 0,0 293,-3 425,-99 132,-97 225,-346 225,-346z"/>
  <path class="fil1" d="M4065 1425c0,0 -181,-29 -273,42 -91,70 -89,206 -89,206 0,0 163,-2 236,-55 74,-54 126,-193 126,-193z"/>
  <path class="fil0" d="M3456 812c0,0 -197,265 -161,469 37,204 255,313 255,313 0,0 133,-260 108,-422 -24,-162 -202,-360 -202,-360z"/>
  <path class="fil1" d="M3475 1095c0,0 -110,148 -90,261 20,114 142,174 142,174 0,0 74,-144 60,-234 -14,-90 -112,-201 -112,-201z"/>
  <path class="fil0" d="M5067 3092c0,0 -230,-67 -359,9 -130,77 -149,253 -149,253 0,0 211,24 315,-34 104,-58 193,-228 193,-228z"/>
  <path class="fil1" d="M4879 3176c0,0 -127,-37 -200,6 -72,42 -82,140 -82,140 0,0 117,14 175,-19 57,-32 107,-127 107,-127z"/>
  <path class="fil0" d="M5203 3697c0,0 -118,-208 -265,-243 -146,-36 -282,77 -282,77 0,0 134,164 249,195 115,31 298,-29 298,-29z"/>
  <path class="fil1" d="M5009 3627c0,0 -65,-116 -147,-136 -81,-19 -157,44 -157,44 0,0 75,91 139,108 63,17 165,-16 165,-16z"/>
  <path class="fil0" d="M5501 2496c0,0 -339,-118 -538,-14 -200,104 -243,365 -243,365 0,0 313,54 473,-24 160,-79 308,-327 308,-327z"/>
  <path class="fil1" d="M5213 2607c0,0 -188,-66 -299,-8 -111,58 -135,203 -135,203 0,0 174,30 263,-13 89,-44 171,-182 171,-182z"/>
  <path class="fil0" d="M4807 1924c0,0 -288,63 -383,221 -96,159 -13,361 -13,361 0,0 242,-97 321,-221 78,-123 75,-361 75,-361z"/>
  <path class="fil1" d="M4653 2126c0,0 -160,34 -213,123 -53,88 -7,200 -7,200 0,0 135,-54 178,-122 44,-69 42,-201 42,-201z"/>
  <path class="fil0" d="M4117 1728c0,0 -184,264 -142,462 42,198 258,297 258,297 0,0 121,-258 92,-415 -29,-156 -208,-344 -208,-344z"/>
  <path class="fil1" d="M4144 2004c0,0 -102,146 -79,256 23,110 143,165 143,165 0,0 68,-143 51,-230 -16,-87 -115,-191 -115,-191z"/>
  <path class="fil2" d="M5324 4684c-17,-29 -27,-62 -29,-96l-625 182 222 -581 -60 0 -253 582 -876 297 -38 -1291 263 -243 634 -9 29 -58 -590 0 598 -553 -20 -90 -405 355 162 -624 -49 20 -213 692 -399 350 -90 -1938 -90 0 -11 994 -481 -442 -91 10 552 543 -38 1271 -544 -448 -50 -432 -40 -70 0 442 -372 -241 -100 -10 1106 891 -7 597 -1099 -515 -151 -361 -80 -20 141 351 -583 -180 10 40 1034 492 -572 40 70 60 623 -30 598 330 -17 2671 376 0 -40 -2431 1595 -547z"/>
  <path class="fil0" d="M1363 4465c0,0 174,237 358,259 184,23 334,-135 334,-135 0,0 -187,-182 -332,-203 -145,-21 -360,79 -360,79z"/>
  <path class="fil1" d="M1609 4523c0,0 98,132 200,144 102,13 186,-75 186,-75 0,0 -105,-101 -185,-113 -81,-12 -201,44 -201,44z"/>
  <path class="fil0" d="M1466 5175c0,0 315,59 479,-59 163,-119 166,-357 166,-357 0,0 -285,-5 -416,85 -132,91 -229,331 -229,331z"/>
  <path class="fil1" d="M1706 5038c0,0 175,33 266,-33 91,-66 92,-198 92,-198 0,0 -158,-3 -231,47 -73,50 -127,184 -127,184z"/>
  <path class="fil0" d="M930 3666c0,0 82,311 260,407 178,96 393,-4 393,-4 0,0 -117,-259 -256,-339 -138,-79 -397,-64 -397,-64z"/>
  <path class="fil1" d="M1157 3824c0,0 46,172 145,226 99,53 218,-3 218,-3 0,0 -65,-144 -142,-188 -77,-44 -221,-35 -221,-35z"/>
  <path class="fil0" d="M4486 3679c0,0 -64,230 14,359 78,129 254,145 254,145 0,0 22,-210 -37,-314 -59,-103 -231,-190 -231,-190z"/>
  <path class="fil1" d="M4573 3866c0,0 -36,128 8,199 43,72 141,81 141,81 0,0 12,-117 -21,-174 -33,-58 -128,-106 -128,-106z"/>
  <path class="fil0" d="M6454 4539c0,0 -278,-274 -524,-265 -246,9 -410,247 -410,247 0,0 284,200 478,197 194,-3 456,-179 456,-179z"/>
  <path class="fil1" d="M6118 4515c0,0 -155,-153 -291,-148 -137,5 -228,138 -228,138 0,0 158,111 266,109 108,-1 253,-99 253,-99z"/>
  <path class="fil0" d="M5648 3871c0,0 -288,118 -358,302 -70,183 53,377 53,377 0,0 235,-146 294,-289 58,-143 11,-390 11,-390z"/>
  <path class="fil1" d="M5525 4109c0,0 -160,66 -199,168 -39,102 29,210 29,210 0,0 131,-81 164,-161 32,-79 6,-217 6,-217z"/>
  <path class="fil0" d="M3949 4413c0,0 255,152 434,100 179,-51 257,-257 257,-257 0,0 -245,-94 -388,-57 -142,37 -303,214 -303,214z"/>
  <path class="fil1" d="M4201 4370c0,0 141,84 241,56 100,-29 142,-143 142,-143 0,0 -136,-53 -215,-32 -79,21 -168,119 -168,119z"/>
  <path class="fil0" d="M2481 3585c0,0 -178,237 -146,421 31,183 227,282 227,282 0,0 121,-233 99,-379 -21,-145 -180,-324 -180,-324z"/>
  <path class="fil1" d="M2497 3840c0,0 -100,131 -82,234 18,102 127,157 127,157 0,0 67,-130 55,-211 -12,-81 -100,-180 -100,-180z"/>
  <path class="fil0" d="M2803 5256c0,0 -54,-292 -211,-393 -157,-101 -362,-24 -362,-24 0,0 90,247 212,330 122,83 361,87 361,87z"/>
  <path class="fil1" d="M2605 5095c0,0 -30,-162 -117,-218 -87,-57 -201,-14 -201,-14 0,0 49,138 117,184 68,46 201,48 201,48z"/>
  <path class="fil0" d="M5993 5157c0,0 -53,-291 -210,-393 -157,-101 -362,-24 -362,-24 0,0 90,247 212,330 122,83 360,87 360,87z"/>
  <path class="fil1" d="M5796 4996c0,0 -30,-162 -117,-218 -87,-57 -202,-14 -202,-14 0,0 50,138 118,184 68,46 201,48 201,48z"/>
 </g>
</svg>
