<?xml version="1.0" encoding="UTF-8"?>
<!DOCTYPE svg PUBLIC "-//W3C//DTD SVG 1.1//EN" "http://www.w3.org/Graphics/SVG/1.1/DTD/svg11.dtd">
<!-- Creator: CorelDRAW X8 -->
<svg xmlns="http://www.w3.org/2000/svg" xml:space="preserve" width="125mm" height="125mm" version="1.1" style="shape-rendering:geometricPrecision; text-rendering:geometricPrecision; image-rendering:optimizeQuality; fill-rule:evenodd; clip-rule:evenodd"
viewBox="0 0 12500 12500"
 xmlns:xlink="http://www.w3.org/1999/xlink">
 <defs>
  <style type="text/css">
   <![CDATA[
    .fil1 {fill:#4B6B21;fill-rule:nonzero}
    .fil3 {fill:#4D3B01;fill-rule:nonzero}
    .fil2 {fill:#5B4601;fill-rule:nonzero}
    .fil4 {fill:#77A126;fill-rule:nonzero}
    .fil5 {fill:white;fill-rule:nonzero;fill-opacity:0.101961}
    .fil0 {fill:#CFD1D1;fill-rule:nonzero}
   ]]>
  </style>
 </defs>
 <g id="Layer_x0020_1">
  <metadata id="CorelCorpID_0Corel-Layer"/>
  <g id="_670504960">
   <path class="fil0" d="M9278 11239c0,231 -1301,418 -2907,418 -1605,0 -2906,-187 -2906,-418 0,-230 1301,-417 2906,-417 1606,0 2907,187 2907,417z"/>
   <g>
    <g>
     <path class="fil1" d="M4134 2496c0,441 -358,799 -799,799 -442,0 -800,-358 -800,-799 0,-441 358,-799 800,-799 441,0 799,358 799,799z"/>
     <path class="fil1" d="M4737 1937c0,441 -358,799 -799,799 -442,0 -799,-358 -799,-799 0,-442 357,-799 799,-799 441,0 799,357 799,799z"/>
     <path class="fil1" d="M6319 1315c0,442 -358,800 -799,800 -442,0 -799,-358 -799,-800 0,-441 357,-799 799,-799 441,0 799,358 799,799z"/>
    </g>
    <g>
     <path class="fil1" d="M6055 6614c0,442 -357,800 -799,800 -441,0 -799,-358 -799,-800 0,-441 358,-799 799,-799 442,0 799,358 799,799z"/>
     <path class="fil1" d="M8593 6829c0,625 -506,1132 -1131,1132 -625,0 -1131,-507 -1131,-1132 0,-624 506,-1131 1131,-1131 625,0 1131,507 1131,1131z"/>
     <path class="fil1" d="M9641 6658c0,442 -358,799 -799,799 -441,0 -799,-357 -799,-799 0,-441 358,-799 799,-799 441,0 799,358 799,799z"/>
     <path class="fil1" d="M10848 5698c0,441 -357,799 -799,799 -441,0 -799,-358 -799,-799 0,-441 358,-799 799,-799 442,0 799,358 799,799z"/>
     <path class="fil1" d="M6007 7049c0,572 -463,1035 -1034,1035 -572,0 -1035,-463 -1035,-1035 0,-571 463,-1035 1035,-1035 571,0 1034,464 1034,1035z"/>
     <path class="fil1" d="M7035 6882c0,442 -358,800 -799,800 -442,0 -799,-358 -799,-800 0,-441 357,-799 799,-799 441,0 799,358 799,799z"/>
     <path class="fil1" d="M7035 6382c0,442 -358,800 -799,800 -442,0 -799,-358 -799,-800 0,-441 357,-799 799,-799 441,0 799,358 799,799z"/>
    </g>
    <g>
     <path class="fil2" d="M4982 11148c0,0 1000,-816 874,-1863 -127,-1046 -1644,-2947 -2070,-3073 -425,-127 403,-445 403,-445 0,0 517,954 644,931 126,-23 51,-931 51,-931l317 0c0,0 -55,645 103,1219 167,605 549,1139 655,1104 207,-69 161,-897 161,-1231 0,-333 -644,-1092 -644,-1092l276 -69c0,0 427,734 460,587 34,-148 161,-702 161,-702l368 104c0,0 -103,529 -138,643 -34,115 64,202 138,127 75,-75 541,-540 541,-540l376 16c0,0 -629,673 -756,961 -126,287 -103,862 58,874 161,11 958,-1977 958,-1977l207 0c0,0 -372,1183 -314,1287 57,103 678,-265 735,-276 58,-12 17,-793 17,-793l252 -127 -23 832 801 -464 57 184 -1357 736c0,0 -766,413 -996,781 -230,368 -334,774 -383,1576 -69,1115 851,1575 851,1575l-2783 46z"/>
     <path class="fil2" d="M4189 5767c0,0 -174,67 -322,152 289,221 537,504 854,695 -197,-229 -532,-847 -532,-847z"/>
     <g>
      <g>
       <path class="fil3" d="M6056 6169c-134,-179 -304,-471 -304,-471l-78 20c124,153 234,321 382,451z"/>
       <path class="fil3" d="M6622 6256c44,-185 119,-569 119,-569l-166 -47c-15,198 17,412 47,616z"/>
       <path class="fil3" d="M7297 7951c230,-368 996,-781 996,-781l1357 -736 -57 -184 -801 464 23 -832 -252 127c0,0 41,781 -17,793 -54,11 -620,345 -723,287 -1238,835 -971,2438 -1415,3668 -52,121 -103,250 -172,370l1529 -25c0,0 -920,-460 -851,-1575 49,-802 153,-1208 383,-1576z"/>
      </g>
      <path class="fil3" d="M4762 6658c-187,-178 -573,-891 -573,-891 0,0 -130,50 -260,118 223,332 500,606 833,773z"/>
     </g>
    </g>
    <g>
     <path class="fil4" d="M4415 6968c0,441 -358,799 -800,799 -441,0 -799,-358 -799,-799 0,-441 358,-799 799,-799 442,0 800,358 800,799z"/>
     <path class="fil4" d="M10508 6658c0,479 -388,867 -867,867 -479,0 -867,-388 -867,-867 0,-479 388,-867 867,-867 479,0 867,388 867,867z"/>
     <path class="fil4" d="M10567 3410c0,441 -358,799 -799,799 -442,0 -800,-358 -800,-799 0,-441 358,-799 800,-799 441,0 799,358 799,799z"/>
     <path class="fil4" d="M9882 2496c0,441 -357,799 -799,799 -441,0 -799,-358 -799,-799 0,-441 358,-799 799,-799 442,0 799,358 799,799z"/>
     <path class="fil4" d="M8842 1937c0,441 -358,799 -799,799 -442,0 -799,-358 -799,-799 0,-442 357,-799 799,-799 441,0 799,357 799,799z"/>
     <path class="fil4" d="M3426 4336c0,441 -358,799 -799,799 -441,0 -799,-358 -799,-799 0,-442 358,-800 799,-800 441,0 799,358 799,800z"/>
     <path class="fil4" d="M3696 3200c0,442 -358,799 -799,799 -442,0 -799,-357 -799,-799 0,-441 357,-799 799,-799 441,0 799,358 799,799z"/>
     <path class="fil4" d="M4688 2240c0,441 -358,799 -799,799 -442,0 -799,-358 -799,-799 0,-441 357,-799 799,-799 441,0 799,358 799,799z"/>
     <path class="fil4" d="M5834 1552c0,441 -358,799 -800,799 -441,0 -799,-358 -799,-799 0,-442 358,-799 799,-799 442,0 800,357 800,799z"/>
     <path class="fil4" d="M5487 5457c0,441 -358,799 -799,799 -441,0 -799,-358 -799,-799 0,-442 358,-800 799,-800 441,0 799,358 799,800z"/>
     <path class="fil4" d="M6571 5284c0,441 -358,799 -799,799 -442,0 -799,-358 -799,-799 0,-441 357,-799 799,-799 441,0 799,358 799,799z"/>
     <path class="fil4" d="M9573 5698c0,441 -357,799 -799,799 -441,0 -799,-358 -799,-799 0,-441 358,-799 799,-799 442,0 799,358 799,799z"/>
     <path class="fil4" d="M8340 5215c0,441 -358,799 -800,799 -441,0 -799,-358 -799,-799 0,-441 358,-799 799,-799 442,0 800,358 800,799z"/>
     <path class="fil4" d="M7540 5370c0,441 -357,799 -799,799 -441,0 -799,-358 -799,-799 0,-442 358,-800 799,-800 442,0 799,358 799,800z"/>
     <path class="fil4" d="M3889 5698c0,654 -530,1184 -1184,1184 -655,0 -1185,-530 -1185,-1184 0,-654 530,-1184 1185,-1184 654,0 1184,530 1184,1184z"/>
     <path class="fil4" d="M8043 1552c0,654 -530,1184 -1184,1184 -655,0 -1185,-530 -1185,-1184 0,-654 530,-1184 1185,-1184 654,0 1184,530 1184,1184z"/>
     <path class="fil4" d="M11067 4764c0,654 -530,1184 -1185,1184 -654,0 -1184,-530 -1184,-1184 0,-655 530,-1185 1184,-1185 655,0 1185,530 1185,1185z"/>
    </g>
    <polygon class="fil4" points="5834,1789 3665,2736 2535,3999 2748,5815 4325,6061 6864,5170 9083,5948 9546,4088 8968,2736 6859,1789 "/>
    <path class="fil5" d="M5206 2311c311,-306 811,-303 1117,8 56,57 102,121 137,189 -22,-164 -95,-322 -220,-449 -306,-311 -806,-314 -1116,-8 -254,249 -303,628 -146,927 -32,-237 44,-486 228,-667z"/>
    <path class="fil5" d="M2322 6447c-503,-414 -575,-1158 -161,-1660 77,-93 165,-171 260,-234 -240,58 -464,191 -633,396 -414,503 -342,1246 161,1660 409,338 979,353 1400,74 -348,84 -730,9 -1027,-236z"/>
    <path class="fil5" d="M2349 3015c216,-372 693,-499 1066,-283 68,40 129,89 180,145 -64,-151 -175,-282 -326,-371 -373,-216 -850,-89 -1066,283 -176,304 -124,677 102,921 -92,-217 -84,-474 44,-695z"/>
    <path class="fil5" d="M8017 1365c425,69 714,469 645,894 -13,78 -37,152 -70,220 117,-113 201,-264 229,-437 69,-425 -220,-825 -645,-894 -346,-56 -676,125 -824,424 171,-163 414,-248 665,-207z"/>
    <path class="fil5" d="M10562 4265c267,580 13,1266 -567,1533 -108,49 -218,80 -329,95 236,51 490,30 727,-79 580,-267 834,-953 568,-1533 -217,-473 -714,-729 -1204,-663 343,74 648,303 805,647z"/>
   </g>
  </g>
 </g>
</svg>
